<?xml version="1.0" encoding="utf-8"?>
<!-- Generator: Adobe Illustrator 25.2.1, SVG Export Plug-In . SVG Version: 6.00 Build 0)  -->
<svg version="1.1" id="Layer_1" xmlns="http://www.w3.org/2000/svg" xmlns:xlink="http://www.w3.org/1999/xlink" x="0px" y="0px"
	 viewBox="0 0 512 512" style="enable-background:new 0 0 512 512;" xml:space="preserve">
<style type="text/css">
	.st0{fill:url(#SVGID_1_);}
	.st1{fill:url(#SVGID_2_);}
	.st2{fill:url(#SVGID_3_);}
</style>
<linearGradient id="SVGID_1_" gradientUnits="userSpaceOnUse" x1="47.4825" y1="253.6142" x2="463.5986" y2="253.6142">
	<stop  offset="0" style="stop-color:#FEC66C"/>
	<stop  offset="0.3634" style="stop-color:#FBB040"/>
</linearGradient>
<path class="st0" d="M47.48,280.62c1.6,131.79,115.58,229.64,230.87,217.45c100.76-10.65,185.28-103.53,185.24-217.45L47.48,8.13
	V280.62z"/>
<linearGradient id="SVGID_2_" gradientUnits="userSpaceOnUse" x1="47.4825" y1="253.6142" x2="463.5986" y2="253.6142">
	<stop  offset="0" style="stop-color:#F7941D"/>
	<stop  offset="0.3075" style="stop-color:#FBB040"/>
</linearGradient>
<path class="st1" d="M463.6,281.6C462,413.39,348.02,511.24,232.73,499.05C131.97,488.39,47.44,395.52,47.48,281.6
	C119.51,190.12,191.54,98.64,263.57,7.16C330.25,98.64,396.92,190.12,463.6,281.6z"/>
<linearGradient id="SVGID_3_" gradientUnits="userSpaceOnUse" x1="47.4825" y1="253.6142" x2="463.5986" y2="253.6142">
	<stop  offset="0.0112" style="stop-color:#FFD47C"/>
	<stop  offset="1" style="stop-color:#FBA919"/>
</linearGradient>
<path class="st2" d="M463.6,280.62C462,412.41,348.02,510.26,232.73,498.07C131.97,487.41,47.44,394.54,47.48,280.62L463.6,8.13
	V280.62z"/>
</svg>
